<svg width="425" height="160" viewBox="0 0 425 160" fill="none" xmlns="http://www.w3.org/2000/svg">
<g clip-path="url(#clip0_896_1580)">
<path fill-rule="evenodd" clip-rule="evenodd" d="M318.244 53.3563C318.244 42.8034 321.374 32.4875 327.239 23.7132C333.105 14.9388 341.441 8.09994 351.195 4.06153C360.949 0.0231156 371.682 -1.03351 382.036 1.02525C392.391 3.08402 401.902 8.16571 409.367 15.6277C416.832 23.0897 421.916 32.5969 423.976 42.947C426.035 53.2971 424.978 64.0253 420.938 73.7749C416.898 83.5245 410.056 91.8576 401.278 97.7205C392.5 103.583 382.18 106.713 371.622 106.713H361.613C337.661 106.713 318.244 87.3036 318.244 63.3613V53.3563ZM359.366 23.7795C365.218 21.3564 371.658 20.7224 377.871 21.9577C384.083 23.1929 389.79 26.242 394.269 30.7192C398.748 35.1964 401.798 40.9007 403.034 47.1108C404.27 53.3208 403.636 59.7577 401.212 65.6075C398.788 71.4572 394.683 76.4571 389.416 79.9748C384.149 83.4925 377.957 85.3701 371.622 85.3701H342.738C341.002 85.3701 339.595 83.9634 339.595 82.228V53.3563C339.595 47.0246 341.473 40.8351 344.993 35.5704C348.512 30.3058 353.514 26.2025 359.366 23.7795ZM339.061 129.283C339.061 105.322 319.637 85.8984 295.676 85.8984H285.682V106.918H314.888C316.625 106.918 318.033 108.325 318.033 110.062L318.244 139.804L339.061 139.255V129.283ZM201.157 66.3047V139.179H209.7V102.742V66.3047H201.157ZM26.774 85.4603C31.6704 85.4603 36.046 86.6055 39.9006 88.6876C43.7552 90.8738 46.7764 93.997 48.9642 98.0572C51.1519 102.221 52.2979 107.01 52.2979 112.632C52.2979 118.046 51.1519 122.73 48.9642 126.791C46.7764 130.955 43.7552 134.078 39.9006 136.368C35.9418 138.659 31.5663 139.804 26.774 139.804C22.3985 139.804 18.7522 139.075 15.731 137.514C12.6057 135.952 10.2096 133.766 8.54269 131.059V160.001H0V86.0849H7.39672L8.54269 94.6217C12.9182 88.5835 19.0648 85.4603 26.774 85.4603ZM25.9406 132.204C31.1496 132.204 35.4209 130.434 38.6505 126.791C41.88 123.147 43.5469 118.462 43.5469 112.632C43.5469 106.906 41.88 102.221 38.6505 98.5777C35.4209 94.934 31.1496 93.0601 25.9406 93.0601C22.5027 93.0601 19.4815 93.8929 16.7728 95.5586C14.0642 97.2243 12.0848 99.5147 10.6263 102.43C9.16776 105.345 8.43851 108.676 8.43851 112.424C8.43851 116.276 9.16776 119.711 10.6263 122.73C12.0848 125.749 14.0642 128.04 16.7728 129.706C19.4815 131.371 22.5027 132.204 25.9406 132.204ZM95.5172 86.0849H104.06V139.179H96.6631L95.5172 132.1C91.4542 137.305 85.8285 139.804 78.536 139.804C72.181 139.804 67.0763 137.93 63.3258 133.974C59.4712 130.122 57.596 123.98 57.596 115.651V86.0849H66.1386V115.131C66.1386 120.648 67.2846 124.813 69.6807 127.728C72.0769 130.643 75.5148 131.996 79.9945 131.996C84.7867 131.996 88.6413 130.33 91.35 126.791C94.0586 123.355 95.5172 118.67 95.5172 112.632V86.0849ZM137.02 86.0849H134.624C130.248 86.0849 126.914 86.8137 124.518 88.2712C122.018 89.7287 120.039 91.7067 118.58 94.1011L117.434 86.0849H110.037V139.179H118.58V112.112C118.58 107.114 119.622 102.95 121.81 99.5147C123.997 96.1833 127.644 94.4134 132.748 94.4134H137.02V86.0849ZM169.694 85.4603C174.59 85.4603 178.966 86.6055 182.82 88.6876C186.675 90.8738 189.696 93.997 191.884 98.0572C194.072 102.221 195.218 107.01 195.218 112.632C195.218 118.046 194.072 122.73 191.884 126.791C189.696 130.955 186.675 134.078 182.82 136.368C178.862 138.659 174.486 139.804 169.694 139.804C165.318 139.804 161.672 139.075 158.651 137.514C155.525 135.952 153.129 133.766 151.463 131.059V160.001H142.92V86.0849H150.317L151.463 94.6217C155.838 88.5835 161.985 85.4603 169.694 85.4603ZM168.86 132.204C174.069 132.204 178.341 130.434 181.57 126.791C184.8 123.147 186.467 118.462 186.467 112.632C186.467 106.906 184.8 102.221 181.57 98.5777C178.341 94.934 174.069 93.0601 168.86 93.0601C165.423 93.0601 162.401 93.8929 159.693 95.5586C156.984 97.2243 155.005 99.5147 153.546 102.43C152.088 105.345 151.358 108.676 151.358 112.424C151.358 116.276 152.088 119.711 153.546 122.73C155.005 125.749 156.984 128.04 159.693 129.706C162.401 131.371 165.423 132.204 168.86 132.204ZM215.54 86.0849H224.603L240.959 129.393L256.795 86.0849H265.858L241.376 148.132C240.126 151.36 238.98 153.754 238.042 155.316C237.001 156.981 235.855 158.127 234.396 158.855C232.938 159.688 230.958 160.001 228.562 160.001H218.353V152.193H225.958C227.624 152.193 228.875 152.088 229.708 151.672C230.542 151.36 231.167 150.839 231.687 150.006C232.208 149.173 232.833 147.82 233.667 145.946L236.376 139.596L215.54 86.0849Z" fill="white"/>
</g>
<defs>
<clipPath id="clip0_896_1580">
<rect width="425" height="160" fill="white"/>
</clipPath>
</defs>
</svg>
