<?xml version="1.0" standalone="no"?>
<!DOCTYPE svg PUBLIC "-//W3C//DTD SVG 20010904//EN"
 "http://www.w3.org/TR/2001/REC-SVG-20010904/DTD/svg10.dtd">
<svg version="1.0" xmlns="http://www.w3.org/2000/svg"
 width="787.000000pt" height="787.000000pt" viewBox="0 0 787.000000 787.000000"
 preserveAspectRatio="xMidYMid meet">
<metadata>
Created by potrace 1.14, written by Peter Selinger 2001-2017
</metadata>
<g transform="translate(0.000000,787.000000) scale(0.100000,-0.100000)"
fill="#000000" stroke="none">
<path d="M740 3930 l0 -3930 3195 0 3195 0 0 3930 0 3930 -3195 0 -3195 0 0
-3930z m3985 2417 c214 -40 375 -96 565 -193 471 -243 829 -698 955 -1216 59
-240 70 -541 30 -768 -128 -719 -644 -1295 -1340 -1496 -220 -63 -369 -77
-756 -72 -263 4 -319 8 -412 27 -260 53 -485 161 -688 329 -265 220 -443 518
-521 872 -22 99 -23 125 -23 485 0 393 3 433 46 610 54 220 171 478 296 655
88 123 320 355 443 443 123 87 361 207 503 253 117 37 247 67 363 83 100 14
443 6 539 -12z m-2692 -3036 c313 -68 558 -202 782 -426 176 -175 289 -354
369 -583 64 -184 78 -283 84 -584 l4 -268 -376 0 -376 0 0 531 c0 371 -3 537
-11 552 -6 12 -21 30 -33 39 -19 16 -64 18 -558 18 l-538 0 0 376 0 376 278
-5 c232 -4 293 -8 375 -26z"/>
<path d="M4213 5596 c-375 -71 -702 -336 -840 -681 -80 -199 -77 -168 -81
-854 -2 -459 0 -622 9 -643 25 -60 10 -59 682 -56 l612 4 100 27 c127 34 299
119 403 196 555 419 594 1249 81 1724 -136 126 -305 217 -496 268 -101 27
-362 35 -470 15z"/>
</g>
</svg>
